HIERARCHY
ROOT joint_0
{
	OFFSET 0.000000 0.000000 0.000000
	CHANNELS 6 Xposition Yposition Zposition Zrotation Yrotation Xrotation 
	JOINT joint_1
	{
		OFFSET 1.363060 -1.794630 0.839290
		CHANNELS 3 Zrotation Yrotation Xrotation
		JOINT joint_2
		{
			OFFSET 2.448110 -6.726130 0.000000
			CHANNELS 3 Zrotation Yrotation Xrotation
			JOINT joint_3
			{
				OFFSET 2.562200 -7.039590 0.000000
				CHANNELS 3 Zrotation Yrotation Xrotation
				JOINT joint_4
				{
					OFFSET 0.157640 -0.433110 2.322550
					CHANNELS 3 Zrotation Yrotation Xrotation
					End Site
					{
						OFFSET 0.000000 0.000000 0.000000
					}
				}
			}
		}
	}
	JOINT joint_5
	{
		OFFSET -1.305520 -1.794630 0.839290
		CHANNELS 3 Zrotation Yrotation Xrotation
		JOINT joint_6
		{
			OFFSET -2.542530 -6.985550 0.000000
			CHANNELS 3 Zrotation Yrotation Xrotation
			JOINT joint_7
			{
				OFFSET -2.568260 -7.056230 0.000000
				CHANNELS 3 Zrotation Yrotation Xrotation
				JOINT joint_8
				{
					OFFSET -0.164730 -0.452590 2.363150
					CHANNELS 3 Zrotation Yrotation Xrotation
					End Site
					{
						OFFSET 0.000000 0.000000 0.000000
					}
				}
			}
		}
	}
	JOINT joint_9
	{
		OFFSET 0.028270 2.035590 -0.193380
		CHANNELS 3 Zrotation Yrotation Xrotation
		JOINT joint_10
		{
			OFFSET 0.056720 2.048850 -0.042750
			CHANNELS 3 Zrotation Yrotation Xrotation
			JOINT joint_11
			{
				OFFSET -0.054170 1.746240 0.172020
				CHANNELS 3 Zrotation Yrotation Xrotation
				JOINT joint_12
				{
					OFFSET 0.104070 1.761360 -0.123970
					CHANNELS 3 Zrotation Yrotation Xrotation
					End Site
					{
						OFFSET 0.000000 0.000000 0.000000
					}
				}
			}
			JOINT joint_13
			{
				OFFSET 3.362410 1.200890 -0.311210
				CHANNELS 3 Zrotation Yrotation Xrotation
				JOINT joint_14
				{
					OFFSET 4.983000 -0.000000 -0.000000
					CHANNELS 3 Zrotation Yrotation Xrotation
					JOINT joint_15
					{
						OFFSET 3.483560 -0.000000 -0.000000
						CHANNELS 3 Zrotation Yrotation Xrotation
						JOINT joint_16
						{
							OFFSET 0.000000 0.000000 0.000000
							CHANNELS 3 Zrotation Yrotation Xrotation
							End Site
							{
								OFFSET 0.000000 0.000000 0.000000
							}
						}
					}
				}
			}
			JOINT joint_17
			{
				OFFSET -3.136600 1.374050 -0.404650
				CHANNELS 3 Zrotation Yrotation Xrotation
				JOINT joint_18
				{
					OFFSET -5.241900 -0.000000 -0.000000
					CHANNELS 3 Zrotation Yrotation Xrotation
					JOINT joint_19
					{
						OFFSET -3.444170 -0.000000 -0.000000
						CHANNELS 3 Zrotation Yrotation Xrotation
						JOINT joint_20
						{
							OFFSET 0.000000 0.000000 0.000000
							CHANNELS 3 Zrotation Yrotation Xrotation
							End Site
							{
								OFFSET 0.000000 0.000000 0.000000
							}
						}
					}
				}
			}
		}
	}
}
MOTION
Frames: 10
Frame Time: 0.031667
-9.504039 13.213994 1.398569 -12.802456 78.930977 -3.364663 -8.035327 8.349856 -39.698603 -13.231904 13.134906 25.847966 3.397938 9.424913 0.585608 -0.448189 3.569370 11.181095 4.866901 -15.816688 -23.167553 -1.444316 -21.501205 65.694617 -3.750836 2.236880 6.475833 -7.156026 -5.055989 15.982272 2.516828 -5.587422 -5.740290 -3.835053 2.050890 -7.277122 -1.073425 -2.514027 10.166401 5.280960 -0.589862 -28.575536 -98.653395 -73.026859 37.319669 24.937845 -34.151383 -14.345914 6.995059 -0.372049 -2.591273 -6.918372 -0.022309 0.084683 59.693053 72.293727 49.619374 -38.049997 43.542323 -31.449039 -10.952802 -1.599236 -3.699664 7.058651 -0.041407 -0.004367 
-9.044865 13.234505 1.380784 -15.252708 78.662460 -5.019760 -7.379995 9.734565 -41.240884 -16.939194 15.519812 27.850006 -5.567962 9.935901 3.720629 -0.123959 4.173928 12.669205 2.186663 -14.330005 -24.180639 2.254187 -22.009192 68.364641 -7.277513 1.762865 6.811168 -6.517567 -6.568566 19.403608 2.670925 -2.820092 -2.875317 -5.770556 -1.200860 -4.207866 -0.258187 0.070729 12.182543 6.499418 -0.390507 -28.572742 -76.933871 -71.670930 12.068189 26.527567 -36.756933 -15.152735 5.015440 -2.598393 -3.683676 -6.904012 -0.028104 0.076437 59.954888 69.908940 52.696310 -36.736108 44.964911 -27.447137 -8.527530 -1.928276 -5.811121 7.051027 -0.030902 0.004972 
-8.582102 13.253814 1.375227 -16.009581 78.725639 -5.274573 -8.598818 7.446471 -43.155126 -14.684961 17.289869 29.872007 -18.017858 9.532760 1.235062 0.600428 4.647716 13.623202 2.726662 -11.856026 -21.414400 1.482156 -20.633098 68.604196 -1.787848 -0.846117 2.550550 -5.536505 -8.559593 23.850363 1.764854 -2.720865 -4.643674 -4.955731 0.816410 -9.348967 1.343662 -0.155183 11.999190 7.630646 0.063306 -27.677083 -71.967422 -70.999010 16.334865 26.197761 -36.408860 -15.300747 5.552125 0.281915 -2.862840 -6.924790 -0.028529 0.086789 73.323597 67.831797 45.929706 -37.437793 46.537272 -31.178249 -10.837349 -0.680875 -7.395626 7.087390 -0.012884 0.013927 
-8.108243 13.300405 1.390545 -14.743326 79.047958 -3.570675 -10.909579 9.819518 -44.745689 -13.933959 18.401067 34.520428 -18.133456 9.193007 1.319785 0.961529 4.696646 13.439686 3.820222 -9.562232 -21.707478 1.937600 -21.928981 68.535013 -10.782648 -3.122502 0.166414 -4.038018 -9.980377 26.516541 3.442040 -2.842310 -8.663315 -5.235244 -1.653497 -9.223927 3.883004 0.924284 11.682755 7.902069 0.978878 -27.090613 -73.606073 -70.735987 25.153461 26.771867 -36.391186 -11.357611 7.743876 0.006275 -3.904854 -6.939353 -0.026758 0.098430 64.942600 64.129876 48.767032 -40.507410 43.703744 -31.298775 -11.837373 -1.647210 -6.176632 7.099906 -0.004186 0.012166 
-7.625435 13.354099 1.398971 -12.545284 79.557106 -1.045868 -10.137528 11.801959 -56.507132 -16.676095 16.908591 35.678897 -17.415961 9.407535 3.408593 1.096183 4.440439 12.396652 3.673243 -9.993319 -20.062200 1.820069 -20.597021 68.899684 -7.202759 -3.467362 1.956223 -2.480535 -11.346300 29.228131 1.609860 -2.134437 -5.685327 -3.512213 -2.678925 -8.931445 -0.716886 1.483330 12.289808 7.929904 2.094729 -26.106252 -70.625700 -71.989026 25.390861 28.926719 -36.975495 -15.273486 6.704186 -1.295304 -4.108567 -6.931711 -0.025188 0.101542 56.941764 65.298104 49.285463 -40.954822 46.525336 -31.186722 -12.466202 -2.799401 -5.898381 7.093955 -0.009068 0.018019 
-7.136471 13.432327 1.396847 -12.834898 80.075310 -0.522212 -5.570491 10.406972 -53.146023 -16.605030 18.470112 38.585139 -9.902717 7.849480 0.657347 1.171941 4.230539 11.518262 2.535465 -9.327075 -22.943545 -0.746367 -22.879424 69.260734 -3.033076 -4.052550 2.785093 -0.621195 -12.886214 31.921220 0.663425 -1.843575 -5.976909 -4.722797 -1.576417 -7.613859 3.706866 3.065482 11.872210 8.833997 3.215982 -26.320730 -71.997420 -74.278560 25.475636 28.656626 -38.347616 -17.298916 4.959208 0.252152 -4.663815 -6.919887 -0.021843 0.112854 56.759036 63.861654 52.428641 -43.892602 43.876162 -34.513602 -10.305530 -2.787445 -6.221383 7.097742 -0.013714 0.020217 
-6.670526 13.501952 1.377144 -15.472880 80.590347 -2.654320 -2.129501 11.513831 -48.632098 -16.700089 19.166235 40.471371 -8.453219 7.211175 -2.033177 1.235741 3.736952 9.818020 5.809545 -10.280202 -23.928748 2.379043 -21.439808 71.751376 3.185907 -4.675981 4.249110 1.061615 -14.414906 34.600181 1.517940 -2.660128 -6.865237 -2.642676 -2.057081 -8.024426 1.589439 3.489766 12.496401 9.819823 3.799898 -26.296580 -78.191309 -73.585221 39.841310 28.990318 -38.281465 -17.844375 7.005926 -1.574695 -5.459827 -6.904630 -0.025129 0.108560 63.905367 64.759380 57.555368 -47.102228 45.014966 -39.540730 -12.209411 -5.204141 -5.513589 7.088798 -0.018314 0.025768 
-6.211817 13.555721 1.369746 -18.887506 81.359276 -5.776923 -10.621996 11.700306 -51.941393 -13.744135 19.181044 41.599834 -0.351840 7.944657 1.274003 1.591181 3.315119 8.354873 1.171840 -9.317893 -25.412182 -0.309587 -23.495333 72.499542 2.955486 -4.681759 4.466974 2.249414 -16.697145 39.839906 -2.486803 -1.174407 -5.760464 -1.872243 1.277132 -10.703002 -0.069587 4.101528 10.453535 11.883002 4.302431 -26.525608 -85.689094 -70.995097 22.508473 29.933618 -36.147786 -18.411275 5.162522 -0.219413 -6.026924 -6.898804 -0.024856 0.105631 76.226059 60.563403 60.440515 -48.163041 43.695599 -40.962137 -13.053474 -3.608504 -5.522844 7.075131 -0.027692 0.026842 
-5.754084 13.606577 1.388607 -22.488663 82.385277 -9.056768 -13.070269 11.109247 -58.488959 -18.114365 20.806373 43.262500 -3.139590 6.155071 3.343427 2.096322 3.172150 7.684459 4.961581 -8.112540 -25.607745 1.009582 -22.397331 73.102367 2.506004 -3.169564 3.615265 3.337426 -18.376356 43.452369 1.696172 -1.132260 -5.551502 -3.044634 -1.662398 -8.167488 0.016847 4.224971 9.992985 14.224242 4.336605 -26.066049 -96.150096 -72.397942 8.792281 28.327583 -35.691816 -20.501064 4.574595 -0.517559 -7.188056 -6.889063 -0.025375 0.095012 71.868145 60.602267 61.633920 -48.859184 42.519253 -42.729858 -14.370073 -5.269188 -6.093988 7.063730 -0.030357 0.027050 
-5.301321 13.663393 1.430833 -25.437986 83.286415 -11.655134 -15.544170 10.996969 -60.070141 -14.927035 18.886277 42.903902 -2.661281 5.138819 0.890144 2.456492 2.949057 6.685131 6.048241 -6.443713 -27.204903 0.464765 -22.933658 73.958996 4.738258 -2.442221 4.837254 4.274192 -18.678694 43.311083 0.595251 -0.402057 -5.960464 1.655992 -1.758708 -10.617930 -0.741592 3.187637 9.559607 16.160243 4.277195 -25.139198 -84.581238 -70.783204 30.423281 28.950071 -36.163632 -17.443834 8.443829 -0.387761 -6.848760 -6.910389 -0.025799 0.085338 70.267265 61.278142 60.120459 -48.068310 42.264644 -42.321034 -14.937755 -3.788590 -5.720073 7.076834 -0.032702 0.027047 
